<?xml version="1.0" encoding="UTF-8" standalone="no"?>
<!-- Created with Inkscape (http://www.inkscape.org/) -->

<svg
   width="4582.8018"
   height="4582.8018"
   viewBox="0 0 1212.533 1212.533"
   version="1.1"
   id="svg5"
   xml:space="preserve"
   inkscape:version="1.2.2 (732a01da63, 2022-12-09)"
   sodipodi:docname="ramachandran.svg"
   xmlns:inkscape="http://www.inkscape.org/namespaces/inkscape"
   xmlns:sodipodi="http://sodipodi.sourceforge.net/DTD/sodipodi-0.dtd"
   xmlns="http://www.w3.org/2000/svg"
   xmlns:svg="http://www.w3.org/2000/svg"><sodipodi:namedview
     id="namedview7"
     pagecolor="#ffffff"
     bordercolor="#cccccc"
     borderopacity="1"
     inkscape:showpageshadow="0"
     inkscape:pageopacity="0"
     inkscape:pagecheckerboard="true"
     inkscape:deskcolor="#d1d1d1"
     inkscape:document-units="mm"
     showgrid="false"
     inkscape:zoom="0.13181247"
     inkscape:cx="2655.2875"
     inkscape:cy="1911.807"
     inkscape:window-width="1920"
     inkscape:window-height="1017"
     inkscape:window-x="-8"
     inkscape:window-y="1072"
     inkscape:window-maximized="1"
     inkscape:current-layer="svg5"
     showborder="true" /><defs
     id="defs2"><mask
       maskUnits="userSpaceOnUse"
       id="mask20301"><g
         id="g20309"
         style="stroke-width:0.999999"><rect
           style="fill:#ffffff;fill-opacity:1;stroke:#ffffff;stroke-width:0.529168;stroke-linecap:round;stroke-linejoin:round;stroke-opacity:1"
           id="rect20303"
           width="8.4666662"
           height="7.6729169"
           x="37.367359"
           y="19.060825"
           ry="1.3229166"
           rx="1.3229166" /><text
           xml:space="preserve"
           style="font-weight:300;font-size:4.8086px;line-height:1.25;font-family:'Gotham Rounded';-inkscape-font-specification:'Gotham Rounded Light';text-align:end;text-anchor:end;stroke:#000000;stroke-width:1.32292;stroke-linecap:round;stroke-linejoin:round;stroke-dasharray:none;stroke-opacity:1"
           x="45.032082"
           y="18.801216"
           id="text20307"><tspan
             sodipodi:role="line"
             id="tspan20305"
             style="font-style:normal;font-variant:normal;font-weight:normal;font-stretch:normal;font-size:4.8086px;font-family:'Times New Roman';-inkscape-font-specification:'Times New Roman, ';stroke:#000000;stroke-width:1.32292;stroke-linecap:round;stroke-linejoin:round;stroke-dasharray:none;stroke-opacity:1"
             x="45.032082"
             y="18.801216">β</tspan></text></g></mask><mask
       maskUnits="userSpaceOnUse"
       id="mask20349"><g
         id="g20357"
         style="stroke-width:0.999999"><rect
           style="fill:#ffffff;fill-opacity:1;stroke:#ffffff;stroke-width:0.529168;stroke-linecap:round;stroke-linejoin:round;stroke-opacity:1"
           id="rect20351"
           width="6.3499999"
           height="9.5249996"
           x="43.717358"
           y="7.4191599"
           ry="1.3229166"
           rx="1.3229166" /><text
           xml:space="preserve"
           style="font-weight:300;font-size:4.8086px;line-height:1.25;font-family:'Gotham Rounded';-inkscape-font-specification:'Gotham Rounded Light';text-align:end;text-anchor:end;stroke:#000000;stroke-width:1.32292;stroke-linecap:round;stroke-linejoin:round;stroke-dasharray:none;stroke-opacity:1"
           x="45.032082"
           y="18.801216"
           id="text20355"><tspan
             sodipodi:role="line"
             id="tspan20353"
             style="font-style:normal;font-variant:normal;font-weight:normal;font-stretch:normal;font-size:4.8086px;font-family:'Times New Roman';-inkscape-font-specification:'Times New Roman, ';stroke:#000000;stroke-width:1.32292;stroke-linecap:round;stroke-linejoin:round;stroke-dasharray:none;stroke-opacity:1"
             x="45.032082"
             y="18.801216">β</tspan></text></g></mask></defs><g
     inkscape:groupmode="layer"
     id="layer2"
     inkscape:label="Layer 2"
     transform="translate(587.0183,502.62183)"
     style="display:inline"><rect
       style="fill:#9e247b;fill-opacity:0.1;stroke:#000000;stroke-width:2.64583;stroke-linecap:round;stroke-linejoin:round;stroke-dasharray:none;stroke-opacity:1"
       id="rect5663-5-5"
       width="33.287231"
       height="33.287231"
       x="-352.32788"
       y="587.91443" /><path
       id="path1537"
       style="opacity:1;fill:#9e247b;fill-opacity:0.1;stroke:#000000;stroke-width:2.64583;stroke-linecap:round;stroke-linejoin:round;stroke-dasharray:none;stroke-opacity:1"
       d="m -276.44433,341.52491 c 8.88768,-25.47348 1.14459,-32.06568 2.09494,-58.9289 1.24874,-35.29892 -24.29728,-55.56984 -32.0782,-78.82881 -11.20761,-33.50211 -1.3766,-53.41137 3.43947,-70.93053 3.91692,-14.24835 3.74717,-33.864327 1.06707,-43.678297 -2.6801,-9.81396 -6.31747,-20.25735 -4.67651,-37.73823 3.84819,-40.99419 -17.01899,-46.83012 -18.95165,-116.82372 -1.12863,-40.874863 -11.01066,-109.416423 -26.77865,-147.638883 V -474.6342 h 334.407629 c 11.6342398,24.27653 38.39274,73.07153 50.45365,95.1969 12.73219,23.3568 19.49213,17.0872 29.40833,42.39898 19.83241,50.62354 -31.31569,78.43158 -74.44369,76.41489 -24.28192,-1.13544 -18.4413,13.79346 -26.86872,21.44725 -9.24201,8.39361 -1.92449,24.41332 -2.94874,40.01472 -1.11123,16.93357 -3.12958,24.36808 -1.20373,41.99995 2.43468,22.29037 6.63159,59.284433 -4.49835,76.657783 -15.58476,24.32714 -9.57528,26.87914 6.30893,44.46817 35.1217898,38.89134 45.2526198,70.50149 64.97885,95.2893 8.60335,10.8109 13.99034,23.11787 17.04977,32.54731 3.05943,9.429447 3.7913,15.981357 12.58507,24.782817 26.97337,26.99695 13.57891,89.74679 -30.6345,99.464 -44.21341,9.7172 -58.48897,-15.66246 -109.14597,34.84049 -25.328509,25.25148 -30.618729,60.18646 -32.652639,81.68794 -2.03391,21.50148 6.09603,37.55628 27.694809,52.26082 37.93771,25.82815 34.1787,47.28785 43.12954,58.91326 8.95084,11.62532 30.45433,31.46955 30.7874,31.46955 l -334.407639,1e-4 V 416.4835 c 28.8206,-49.92297 67.00223,-49.50334 75.88353,-74.95859 z"
       sodipodi:nodetypes="ssssssscccsssscssssssssssscccs" /><path
       style="opacity:1;fill:#9e247b;fill-opacity:0.2;stroke:#000000;stroke-width:2.64583;stroke-linecap:round;stroke-linejoin:round;stroke-dasharray:none;stroke-opacity:1"
       d="m -337.63869,-474.6342 c -18.45014,15.6264 -13.18987,52.66339 -2.38996,81.67444 10.55428,28.35124 22.67143,50.59424 29.067,65.05472 12.79115,28.92096 22.75202,49.38565 37.58997,74.38212 7.41898,12.49824 40.41458,29.28018 63.87178,31.06297 24.90725,1.89301 37.23945,-4.04344 52.54388,5.44035 11.91873,7.38576 17.63138,28.75882 22.47807,52.52012 6.34261,31.09523 29.28112,44.91873 52.723159,13.4266 8.3305,-11.19122 13.44693,-33.91585 12.46428,-56.8626 -0.9421,-21.99961 1.1429,-50.74455 18.87497,-67.84357 24.47918,-23.60525 61.69066,-27.05431 69.4817,-51.6172 4.48141,-14.1286 3.73673,-25.98169 -8.11858,-49.69921 -23.81901,-47.65188 -39.52574,-68.35043 -66.58972,-97.53874"
       id="path367"
       sodipodi:nodetypes="csssssssssssz" /><path
       style="opacity:1;fill:#9e247b;fill-opacity:0.2;stroke:#000000;stroke-width:2.64583;stroke-linecap:round;stroke-linejoin:round;stroke-dasharray:none;stroke-opacity:1"
       d="m -169.00216,-112.52992 c 19.82827,6.79085 36.17806,16.438413 69.767969,51.640093 16.79496,17.60085 41.17684,38.47386 61.43636,60.30716999 C -17.538311,21.250653 -1.4011512,44.044263 7.5413288,64.622593 25.426279,105.77925 39.905779,150.79098 5.4718488,169.20414 c -17.2169698,9.20659 -39.3760798,10.29905 -61.8141098,5.02782 -22.41636,-5.26613 -47.133539,-4.75881 -68.025179,-9.10501 -18.87752,-3.92718 -50.31916,-3.72489 -66.25389,-12.20293 -15.79265,-8.40247 -11.61952,-19.2186 -16.61105,-39.91937 -2.22668,-9.23447 -14.85164,-18.808007 -15.44777,-34.521927 -0.4145,-10.92408 -4.24056,-26.04957 -12.7608,-47.94649 -8.1669,-20.98883 -8.84439,-44.08752 -10.38124,-53.59532 -6.1474,-38.03118 2.83053,-44.45121 4.09524,-63.24037 1.26471,-18.789183 -0.4149,-31.305523 11.00861,-36.395493 11.42359,-5.08998 17.13603,-2.07369 24.98106,-1.37022 7.84503,0.7034 16.90685,4.74439 36.73512,11.53525 z"
       id="path1477"
       sodipodi:nodetypes="zssssssssssszzzz" /><path
       style="opacity:1;fill:#9e247b;fill-opacity:0.2;stroke:#000000;stroke-width:2.64583;stroke-linecap:round;stroke-linejoin:round;stroke-dasharray:none;stroke-opacity:1"
       d="m -337.63869,475.21993 c 13.66084,-18.13768 42.21425,-33.20756 62.98172,-33.24894 26.08923,-0.049 32.14812,8.42065 52.92085,9.69824 51.85048,3.18899 50.40382,8.8056 60.69314,7.67922 14.99044,-1.6411 38.13584,-16.89795 53.2328,-17.58951 20.686109,-0.9473 37.944069,18.12381 52.168039,33.46099"
       id="path1549"
       sodipodi:nodetypes="cssssz" /><path
       style="opacity:1;fill:#9e247b;fill-opacity:0.1;stroke:#000000;stroke-width:2.64583;stroke-linecap:round;stroke-linejoin:round;stroke-dasharray:none;stroke-opacity:1"
       d="m 282.71052,-239.925 c 23.27944,-0.2323 36.69688,16.39912 44.2724,35.69393 7.22616,18.40501 14.41108,32.83655 6.79615,49.48006 -11.44952,25.02452 9.62164,46.4869 16.30774,64.576963 6.68609,18.09006 0.5043,20.18658 12.4695,36.35107 37.29688,50.38688 30.02301,95.87935 0.8156,129.25056 -5.96009,6.80975 -2.34637,29.854627 4.02396,52.183967 6.37033,22.32934 2.07975,53.68102 -17.73721,70.92149 -48.93541,42.57312 -97.0774,-3.55636 -91.60031,-57.42281 2.81231,-27.65867 5.91916,-30.58212 10.4747,-46.837017 5.41707,-19.32895 17.27776,-40.03933 11.83819,-63.61562 -4.50476,-19.52458 -18.01207,-38.28366 -29.0318,-55.91582 -11.01974,-17.63215 -20.61965,-33.85987 -27.84155,-48.71061 -14.4438,-29.701483 -42.72422,-65.848533 -32.55475,-103.770093 10.16946,-37.92155 54.61722,-61.81531 91.7674,-62.18607 z"
       id="path1562"
       sodipodi:nodetypes="ssssssssssssszss" /><path
       style="opacity:1;fill:#9e247b;fill-opacity:0.2;stroke:#000000;stroke-width:2.64583;stroke-linecap:round;stroke-linejoin:round;stroke-dasharray:none;stroke-opacity:1"
       d="m 256.36781,-171.90897 c 11.90389,-0.8093 23.58868,5.3231 30.71295,14.76294 11.36876,12.70397 18.5418,28.35707 24.21844,44.26289 4.07587,11.96431 8.76201,23.787753 11.72876,36.086683 2.02346,12.89133 3.8489,25.84062 7.55289,38.38805 2.86452,10.6801 4.70273,23.26759 -2.47135,32.68462 -4.458,5.68743999 -13.0888,7.65086 -19.85823,5.65543999 C 293.6562,-5.899857 284.15543,-18.936277 273.68118,-29.955147 c -18.4265,-21.71296 -32.54586,-46.78693 -44.41367,-72.580803 -6.35428,-14.83713 -10.9505,-32.28028 -3.99277,-47.78065 3.08282,-10.12052 11.93973,-17.92686 21.83532,-21.13032 2.60576,0.045 10.44626,-0.4232 9.25775,-0.4621 z"
       id="path1576"
       sodipodi:nodetypes="zzzzzzzzzzzzzzzzzzzzzzzzzzzzzzz" /><path
       style="opacity:1;fill:#9e247b;fill-opacity:0.1;stroke:#000000;stroke-width:2.64583;stroke-linecap:round;stroke-linejoin:round;stroke-dasharray:none;stroke-opacity:1"
       d="m 275.40614,475.21993 c -9.44864,-11.9405 -18.35973,-24.02671 -28.42632,-35.44708 -14.24754,-16.94145 -21.56119,-38.16842 -31.76964,-57.52724 -4.15409,-10.12173 -10.5817,-19.48605 -13.25517,-30.10743 -0.2821,-17.04617 -4.66204,-35.21949 3.11056,-51.37595 6.82764,-16.41325 18.70937,-30.55324 32.60526,-41.44238 12.6785,-8.04559 27.19578,-13.57025 42.12548,-15.27527 20.4978,-0.7167 36.86538,15.65227 45.26595,32.91628 5.61455,8.02582 8.38675,17.45246 7.74264,27.24225 0.2663,12.68627 1.64088,25.55207 -0.4543,38.134 -3.7364,10.53189 2.60198,21.74868 1.71674,32.73742 0.9591,17.62049 0.9323,35.3081 -1.04667,52.85293 -2.11205,10.93817 4.02519,21.57196 1.60027,32.18399 -2.0531,4.72858 -2.11732,10.84488 1.38563,15.10848"
       id="path1591"
       sodipodi:nodetypes="czzzzzzzzzzzzz" /><path
       style="opacity:1;fill:#9e247b;fill-opacity:0.1;stroke:#000000;stroke-width:2.64583;stroke-linecap:round;stroke-linejoin:round;stroke-dasharray:none;stroke-opacity:1"
       d="m 275.40613,-474.6342 c 4.44574,7.33811 7.47554,15.05957 9.44757,23.46676 2.04356,6.60361 1.98302,13.82789 5.56762,19.93097 4.28005,8.6062 8.78495,17.4176 16.1849,23.8074 5.27768,4.93366 10.73659,9.71088 15.21936,15.4125 3.40664,4.30612 9.7335,4.35996 14.43405,2.45636 5.24317,-1.62549 7.42266,-7.02734 8.92399,-11.79148 2.94178,-7.89195 5.87546,-16.15227 4.84546,-24.71936 -0.07,-6.28314 -3.33761,-11.96762 -3.3319,-18.26058 -0.3854,-8.07624 -4.94004,-15.06257 -8.19465,-22.22472 -1.3108,-2.62699 -1.16082,-5.46316 -2.49597,-8.07785 z"
       id="path1593"
       sodipodi:nodetypes="czzzzzzzzzcc" /><path
       style="opacity:1;fill:#9e247b;fill-opacity:0.1;stroke:#000000;stroke-width:2.64583;stroke-linecap:round;stroke-linejoin:round;stroke-dasharray:none;stroke-opacity:1"
       d="m 597.52629,-213.04246 c -0.957,-10.51651 -2.4124,-61.4263 -3.2497,-71.95309 -1.6327,-9.93098 1.7048,-20.93178 -3.9703,-29.936 -9.332,-19.74015 -8.7377,-42.59383 -17.7378,-62.45207 -5.8436,-9.94659 -6.9517,-21.51324 -9.3822,-32.54684 -3.3948,-10.182 2.7246,-19.7393 6.3551,-28.85948 1.8642,-12.08265 5.3047,-23.86246 7.7867,-35.84426 h 20.1982 z"
       id="path1595"
       sodipodi:nodetypes="czzzzzz" /><path
       style="opacity:1;fill:#9e247b;fill-opacity:0.1;stroke:#000000;stroke-width:2.64583;stroke-linecap:round;stroke-linejoin:round;stroke-dasharray:none;stroke-opacity:1"
       d="m 577.32809,475.21993 c 1.9619,-8.6718 4.1695,-17.38278 6.4724,-25.97103 1.6547,-5.39054 2.6287,-10.11504 4.7555,-15.35642 2.4216,-5.4371 5.6666,-12.48526 8.9703,-17.40899 v 58.73654 z"
       id="path1597"
       sodipodi:nodetypes="czzz" /><path
       style="opacity:1;fill:none;stroke:#000000;stroke-width:2.64583;stroke-linecap:round;stroke-linejoin:round;stroke-dasharray:2.64583, 7.93749;stroke-dashoffset:0;stroke-opacity:1"
       d="M 122.59921,-474.6342 V 475.21993"
       id="path1866" /><path
       style="opacity:1;fill:none;stroke:#000000;stroke-width:2.64583;stroke-linecap:round;stroke-linejoin:round;stroke-dasharray:2.64583, 7.93749;stroke-dashoffset:0;stroke-opacity:1"
       d="M 597.52629,0.29289299 H -352.32786"
       id="path1868" /><text
       xml:space="preserve"
       style="font-weight:300;font-size:98.7778px;line-height:1.25;font-family:'Gotham Rounded';-inkscape-font-specification:'Gotham Rounded Light';text-align:end;text-anchor:end;stroke-width:2.64583"
       x="-396.5527"
       y="24.022717"
       id="text1944"><tspan
         sodipodi:role="line"
         id="tspan1942"
         style="font-style:normal;font-variant:normal;font-weight:normal;font-stretch:normal;font-size:98.7778px;font-family:'Times New Roman';-inkscape-font-specification:'Times New Roman, ';stroke-width:2.64583"
         x="-396.5527"
         y="24.022717">ψ (°)</tspan></text><text
       xml:space="preserve"
       style="font-weight:300;font-size:49.3899px;line-height:1.25;font-family:'Gotham Rounded';-inkscape-font-specification:'Gotham Rounded Light';text-align:end;text-anchor:end;stroke-width:2.64583"
       x="-124.70948"
       y="621.94574"
       id="text1944-2-6-1"><tspan
         sodipodi:role="line"
         id="tspan1942-3-7-2"
         style="font-style:normal;font-variant:normal;font-weight:normal;font-stretch:normal;font-size:49.3899px;font-family:Arial;-inkscape-font-specification:Arial;stroke-width:2.64583"
         x="-124.70948"
         y="621.94574">Favored</tspan></text><text
       xml:space="preserve"
       style="font-weight:300;font-size:49.3899px;line-height:1.25;font-family:'Gotham Rounded';-inkscape-font-specification:'Gotham Rounded Light';text-align:end;text-anchor:end;stroke-width:2.64583"
       x="602.41833"
       y="621.94641"
       id="text1944-2-6-1-0"><tspan
         sodipodi:role="line"
         id="tspan1942-3-7-2-2"
         style="font-style:normal;font-variant:normal;font-weight:normal;font-stretch:normal;font-size:49.3899px;font-family:Arial;-inkscape-font-specification:Arial;stroke-width:2.64583"
         x="602.41833"
         y="621.94641">Allowed</tspan></text><text
       xml:space="preserve"
       style="font-weight:300;font-size:98.7778px;line-height:1.25;font-family:'Gotham Rounded';-inkscape-font-specification:'Gotham Rounded Light';text-align:end;text-anchor:end;stroke-width:2.64583"
       x="216.45741"
       y="601.3999"
       id="text1944-5"><tspan
         sodipodi:role="line"
         id="tspan1942-1"
         style="font-style:normal;font-variant:normal;font-weight:normal;font-stretch:normal;font-size:98.7778px;font-family:'Times New Roman';-inkscape-font-specification:'Times New Roman, ';stroke-width:2.64583"
         x="216.45741"
         y="601.3999">φ (°)</tspan></text><text
       xml:space="preserve"
       style="font-weight:300;font-size:35.2778px;line-height:1.25;font-family:'Gotham Rounded';-inkscape-font-specification:'Gotham Rounded Light';text-align:end;text-anchor:end;stroke-width:2.64583"
       x="-367.83771"
       y="-462.17157"
       id="text1944-5-6-04-1-8-4"><tspan
         sodipodi:role="line"
         id="tspan1942-1-0-2-3-3-1"
         style="font-style:normal;font-variant:normal;font-weight:normal;font-stretch:normal;font-size:35.2778px;font-family:Arial;-inkscape-font-specification:Arial;stroke-width:2.64583"
         x="-367.83771"
         y="-462.17157">180</tspan></text><text
       xml:space="preserve"
       style="font-weight:300;font-size:35.2778px;line-height:1.25;font-family:'Gotham Rounded';-inkscape-font-specification:'Gotham Rounded Light';text-align:end;text-anchor:end;stroke-width:2.64583"
       x="625.87952"
       y="517.7735"
       id="text1944-5-6-04-1-8-4-6"><tspan
         sodipodi:role="line"
         id="tspan1942-1-0-2-3-3-1-3"
         style="font-style:normal;font-variant:normal;font-weight:normal;font-stretch:normal;font-size:35.2778px;font-family:Arial;-inkscape-font-specification:Arial;stroke-width:2.64583"
         x="625.87952"
         y="517.7735">180</tspan></text><text
       xml:space="preserve"
       style="font-weight:300;font-size:35.2778px;line-height:1.25;font-family:'Gotham Rounded';-inkscape-font-specification:'Gotham Rounded Light';text-align:end;text-anchor:end;stroke-width:2.64583"
       x="-316.74002"
       y="517.7735"
       id="text1944-5-6-04-1-8-4-2"><tspan
         sodipodi:role="line"
         id="tspan1942-1-0-2-3-3-1-1"
         style="font-style:normal;font-variant:normal;font-weight:normal;font-stretch:normal;font-size:35.2778px;font-family:Arial;-inkscape-font-specification:Arial;stroke-width:2.64583"
         x="-316.74002"
         y="517.7735">-180</tspan></text><text
       xml:space="preserve"
       style="font-weight:300;font-size:35.2778px;line-height:1.25;font-family:'Gotham Rounded';-inkscape-font-specification:'Gotham Rounded Light';text-align:end;text-anchor:end;stroke-width:2.64583;stroke-dasharray:none"
       x="-367.83771"
       y="12.755533"
       id="text1944-5-6-04-1-8-4-2-8"><tspan
         sodipodi:role="line"
         id="tspan1942-1-0-2-3-3-1-1-42"
         style="font-style:normal;font-variant:normal;font-weight:normal;font-stretch:normal;font-size:35.2778px;font-family:Arial;-inkscape-font-specification:Arial;stroke-width:2.64583;stroke-dasharray:none"
         x="-367.83771"
         y="12.755533">0</tspan></text><text
       xml:space="preserve"
       style="font-weight:300;font-size:35.2778px;line-height:1.25;font-family:'Gotham Rounded';-inkscape-font-specification:'Gotham Rounded Light';text-align:end;text-anchor:end;stroke-width:2.64583"
       x="132.52112"
       y="517.7735"
       id="text1944-5-6-04-1-8-4-2-8-2"><tspan
         sodipodi:role="line"
         id="tspan1942-1-0-2-3-3-1-1-42-2"
         style="font-style:normal;font-variant:normal;font-weight:normal;font-stretch:normal;font-size:35.2778px;font-family:Arial;-inkscape-font-specification:Arial;stroke-width:2.64583"
         x="132.52112"
         y="517.7735">0</tspan></text><text
       xml:space="preserve"
       style="font-weight:300;font-size:35.2778px;line-height:1.25;font-family:'Gotham Rounded';-inkscape-font-specification:'Gotham Rounded Light';text-align:end;text-anchor:end;stroke-width:2.64583"
       x="-367.83771"
       y="487.68286"
       id="text1944-5-6-04-1-8-4-2-4"><tspan
         sodipodi:role="line"
         id="tspan1942-1-0-2-3-3-1-1-4"
         style="font-style:normal;font-variant:normal;font-weight:normal;font-stretch:normal;font-size:35.2778px;font-family:Arial;-inkscape-font-specification:Arial;stroke-width:2.64583"
         x="-367.83771"
         y="487.68286">-180</tspan></text><rect
       style="opacity:1;fill:none;stroke:#000000;stroke-width:2.64583;stroke-linecap:round;stroke-linejoin:round;stroke-dasharray:none;stroke-opacity:1"
       id="rect1668"
       width="949.85413"
       height="949.85413"
       x="-352.32788"
       y="-474.63419" /><rect
       style="opacity:1;fill:#9e247b;fill-opacity:0.2;stroke:#000000;stroke-width:2.64583;stroke-linecap:round;stroke-linejoin:round;stroke-dasharray:none;stroke-opacity:1"
       id="rect5663"
       width="33.287231"
       height="33.287231"
       x="-352.32788"
       y="587.91443" /><rect
       style="fill:#9e247b;fill-opacity:0.1;stroke:#000000;stroke-width:2.64583;stroke-linecap:round;stroke-linejoin:round;stroke-dasharray:none;stroke-opacity:1"
       id="rect5663-5"
       width="33.287231"
       height="33.287231"
       x="378.89969"
       y="587.91443" /><text
       xml:space="preserve"
       style="font-weight:300;font-size:48.086px;line-height:1.25;font-family:'Gotham Rounded';-inkscape-font-specification:'Gotham Rounded Light';text-align:end;text-anchor:end;stroke-width:2.64583"
       x="303.15802"
       y="-78.612915"
       id="text1944-2-2"><tspan
         sodipodi:role="line"
         id="tspan1942-3-1"
         style="font-style:normal;font-variant:normal;font-weight:normal;font-stretch:normal;font-size:48.086px;font-family:'Times New Roman';-inkscape-font-specification:'Times New Roman, ';stroke-width:2.64583"
         x="303.15802"
         y="-78.612915"><tspan
   style="font-style:normal;font-variant:normal;font-weight:normal;font-stretch:normal;font-family:Arial;-inkscape-font-specification:Arial;stroke-width:2.64583"
   id="tspan5582">L</tspan>α</tspan></text><text
       xml:space="preserve"
       style="font-weight:300;font-size:48.086px;line-height:1.25;font-family:'Gotham Rounded';-inkscape-font-specification:'Gotham Rounded Light';text-align:end;text-anchor:end;stroke-width:2.64583"
       x="-97.004669"
       y="86.54528"
       id="text1944-2"><tspan
         sodipodi:role="line"
         id="tspan1942-3"
         style="font-style:normal;font-variant:normal;font-weight:normal;font-stretch:normal;font-size:48.086px;font-family:'Times New Roman';-inkscape-font-specification:'Times New Roman, ';stroke-width:2.64583"
         x="-97.004669"
         y="86.54528">α</tspan></text><text
       xml:space="preserve"
       style="font-weight:300;font-size:48.086px;line-height:1.25;font-family:'Gotham Rounded';-inkscape-font-specification:'Gotham Rounded Light';text-align:end;text-anchor:end;stroke-width:2.64583"
       x="-150.0036"
       y="-351.55319"
       id="text1944-2-6"><tspan
         sodipodi:role="line"
         id="tspan1942-3-7"
         style="font-style:normal;font-variant:normal;font-weight:normal;font-stretch:normal;font-size:48.086px;font-family:'Times New Roman';-inkscape-font-specification:'Times New Roman, ';stroke-width:2.64583"
         x="-150.0036"
         y="-351.55319">β</tspan></text><rect
       style="fill:none;stroke:none;stroke-width:7.9375;stroke-linecap:round;stroke-linejoin:round;stroke-dasharray:2.64583, 7.9375"
       id="rect668"
       width="27.988438"
       height="27.987646"
       x="597.52618"
       y="-502.62183" /></g></svg>
